<svg width="12" height="14" viewBox="0 0 12 14" fill="none" xmlns="http://www.w3.org/2000/svg">
<path fill-rule="evenodd" clip-rule="evenodd" d="M6.42193 13.3007L6.00124 12.7283L5.23671 12.7291L5.23847 14L6.42193 13.3007ZM11.2355 3.86317L10.8127 3.29202L12 2.58534V3.86317H11.2355ZM6.76432 11.4518C6.76409 11.2092 6.76387 10.9481 6.7637 10.6833C6.76301 9.6292 6.76302 8.52702 6.76572 8.30313C6.77145 7.82721 7.09773 7.22367 7.69859 6.82862C7.99076 6.63652 8.96987 6.04405 9.89807 5.48675C10.0951 5.36847 10.2885 5.25252 10.4709 5.14332V8.29573C10.4709 8.66326 10.3765 8.90085 10.2511 9.08506C10.1145 9.28556 9.91786 9.45905 9.63478 9.67981C9.55815 9.73958 9.28348 9.91827 8.85928 10.1817C8.45429 10.4332 7.9554 10.7362 7.46861 11.0293C7.22587 11.1755 6.98666 11.3189 6.76432 11.4518ZM11.2355 3.86317H12V8.29573C12 8.90315 11.835 9.39002 11.556 9.79963C11.2881 10.193 10.9353 10.4827 10.6382 10.7143C10.4828 10.8355 10.1246 11.0637 9.72988 11.3088C9.31599 11.5658 8.81007 11.8731 8.32106 12.1675C7.83157 12.4622 7.35689 12.7455 7.00473 12.9549C6.82861 13.0597 6.68302 13.1461 6.58142 13.2063L6.42193 13.3007L6.00124 12.7283L5.23671 12.7291L5.23593 12.1008C5.2355 11.721 5.23498 11.2097 5.23463 10.6842C5.23395 9.63652 5.23393 8.52242 5.23674 8.28833C5.24824 7.33305 5.85057 6.34352 6.79442 5.72296C7.12014 5.50881 8.13551 4.89497 9.04732 4.34752C9.50804 4.0709 9.94932 3.80706 10.2754 3.6124L10.8127 3.29202L11.2355 3.86317Z"/>
<path fill-rule="evenodd" clip-rule="evenodd" d="M1.18768 0.699307L0.766989 1.27171L0.00245713 1.27086L0.00422225 0L1.18768 0.699307ZM6.00122 10.1368L5.57841 10.708L6.76575 11.4147V10.1368L6.00122 10.1368ZM1.53007 2.54823C1.52984 2.79075 1.52962 3.05189 1.52945 3.31665C1.52876 4.3708 1.52878 5.47298 1.53147 5.69687C1.5372 6.17279 1.86348 6.77633 2.46434 7.17138C2.75651 7.36348 3.73562 7.95595 4.66382 8.51325C4.86082 8.63153 5.05429 8.74748 5.23669 8.85668L5.23668 5.70427C5.23669 5.33674 5.14227 5.09915 5.01681 4.91494C4.88025 4.71444 4.68361 4.54095 4.40053 4.32019C4.3239 4.26042 4.04923 4.08173 3.62503 3.81829C3.22004 3.56679 2.72115 3.26381 2.23436 2.9707C1.99162 2.82454 1.75241 2.68114 1.53007 2.54823ZM6.00122 10.1368L6.76575 10.1368V5.70427C6.76575 5.09685 6.60075 4.60998 6.32177 4.20036C6.05388 3.80704 5.70104 3.51733 5.40399 3.28568C5.24857 3.16448 4.89031 2.93628 4.49563 2.69119C4.08174 2.43415 3.57583 2.12694 3.08681 1.83249C2.59732 1.53775 2.12264 1.25452 1.77048 1.04506C1.59436 0.940299 1.44877 0.853929 1.34717 0.793721L1.18768 0.699307L0.766989 1.27171L0.00245713 1.27086L0.00168062 1.8992C0.00124919 2.27903 0.000731223 2.79027 0.000385646 3.31584C-0.000303015 4.36348 -0.000323864 5.47758 0.00249427 5.71167C0.0139945 6.66695 0.616317 7.65648 1.56017 8.27704C1.88589 8.49119 2.90126 9.10503 3.81307 9.65248C4.2738 9.9291 4.71507 10.1929 5.04111 10.3876L5.57841 10.708L6.00122 10.1368Z" />
</svg>
